# xmcd
#
# Track frame offsets: 
#        150
#        32457
#        62897
#        100732
#        138080
#        179097
#        220817
#        250260
#        283040
#
# Disc length: 4262 seconds
#
# Revision: 4
# Processed by: cddbd v1.5.1PL0 Copyright (c) Steve Scherf et al.
# Submitted via: ExactAudioCopy v0.95a5
#
DISCID=8110a409
DTITLE=Various Artist - Israliens II - Bizarro [HMCD10]
DYEAR=2004
DGENRE=Psychedelic
TTITLE0=I.Zen feat. Duvdev - Into the Matrix
TTITLE1=Liquid Metal - Golem
TTITLE2=Psy Craft - Dream On
TTITLE3=BLT - Clear Vision
TTITLE4=Oforia - Raw (PsySex Remix)
TTITLE5=Infected Mushroom - Classical Mushroom
TTITLE6=Dark Soho - Terra Sancta
TTITLE7=Passenger - All Systems Go
TTITLE8=Green House Effect - Superfly
EXTD=
EXTT0=
EXTT1=
EXTT2=
EXTT3=
EXTT4=
EXTT5=
EXTT6=
EXTT7=
EXTT8=
PLAYORDER=
